<svg width="103" height="104" viewBox="0 0 103 104" fill="none" xmlns="http://www.w3.org/2000/svg">
<path d="M101.052 57.0757L98.0266 51.2092C97.3721 49.9373 96.9823 48.5458 96.8809 47.1189C96.7794 45.692 96.9683 44.2594 97.4363 42.9076L99.0781 38.2587C99.7084 36.4675 99.9727 34.5681 99.8554 32.6729C99.7381 30.7777 99.2415 28.9253 98.395 27.2256C97.5486 25.5259 96.3696 24.0134 94.9278 22.7777C93.4861 21.542 91.8109 20.6084 90.0017 20.032C85.7276 18.6706 80.349 17.6248 78.3243 13.0769L75.52 7.6534C73.7895 4.33419 70.8211 1.83027 67.2577 0.683915C63.6944 -0.462442 59.8228 -0.158956 56.4816 1.52865C52.4101 3.54686 47.3483 7.03817 42.6271 5.16269L37.2219 3.44724C33.6329 2.31567 29.742 2.65068 26.3993 4.37905C23.0567 6.10743 20.534 9.08865 19.3826 12.6713L17.2611 19.3126C16.8525 20.6289 16.1851 21.8503 15.2981 22.9052C14.4111 23.9601 13.3223 24.8273 12.0956 25.4558L7.6681 27.7433C4.32813 29.4722 1.81096 32.4562 0.669487 36.0397C-0.471983 39.6232 -0.144412 43.5133 1.58025 46.8555L4.45814 52.4268C6.8855 56.5719 4.84039 61.4514 3.49866 65.5802C2.93165 67.3548 2.72003 69.2237 2.8759 71.0801C3.03178 72.9365 3.5521 74.744 4.4071 76.3991C5.2621 78.0542 6.43501 79.5246 7.85874 80.726C9.28247 81.9275 10.9291 82.8365 12.7044 83.401C16.8273 84.6203 21.4452 85.7964 23.441 90.0426L26.3191 95.6136C27.516 97.9272 29.3264 99.867 31.552 101.221C33.7776 102.574 36.3326 103.289 38.9375 103.288C42.9123 103.649 47.9597 100.282 51.4269 98.6022C55.7109 96.0183 61.1823 98.5133 65.4474 99.8386C69.0314 100.978 72.9209 100.648 76.262 98.9219C79.6032 97.1959 82.1229 94.2147 83.2682 90.6327C84.6767 86.2912 85.6941 80.6664 90.334 78.5862L94.9642 76.2063C98.3059 74.4742 100.824 71.4869 101.965 67.9002C103.107 64.3135 102.778 60.4205 101.052 57.0757ZM86.3859 51.6335C86.374 60.9309 82.6754 69.8442 76.1011 76.4184C69.5268 82.9927 60.6136 86.6914 51.3162 86.7032C4.79238 84.771 4.80595 18.4888 51.3164 16.5638C60.6138 16.5757 69.527 20.2744 76.1012 26.8487C82.6754 33.423 86.374 42.3361 86.3859 51.6335Z" fill="url(#paint0_linear_24_2684)"/>
<path d="M51.3162 20.2529C42.9964 20.2619 35.02 23.5709 29.137 29.4539C23.254 35.3369 19.945 43.3133 19.936 51.633C21.658 93.2634 80.9806 93.2513 82.6963 51.6328C82.6872 43.3131 79.3782 35.3367 73.4952 29.4538C67.6122 23.5709 59.6359 20.2619 51.3162 20.2529ZM71.2216 46.1724L50.7812 66.1885C49.5281 67.4046 47.8507 68.0848 46.1046 68.0848C44.3585 68.0848 42.681 67.4046 41.428 66.1885L31.2631 56.2082C30.6934 55.6549 30.2412 54.9922 29.9337 54.26C29.6262 53.5277 29.4697 52.7409 29.4737 51.9467C29.4887 50.7736 29.8472 49.6308 30.5049 48.6594C31.1626 47.688 32.0907 46.9307 33.1743 46.4812C34.2579 46.0317 35.4494 45.9097 36.6016 46.1303C37.7538 46.3508 38.8161 46.9043 39.657 47.7223C43.03 51.085 48.4985 51.0504 51.8286 47.6452L62.1451 37.096C68.2658 31.1686 77.2205 40.0354 71.2216 46.1724Z" fill="url(#paint1_linear_24_2684)"/>
<path d="M66.7388 38.8672C66.3752 38.8651 66.0148 38.9358 65.6789 39.0753C65.3431 39.2147 65.0385 39.4199 64.7833 39.6789L47.1101 57.7396C46.9465 57.9281 46.7414 58.0762 46.5109 58.1723C46.2805 58.2683 46.0309 58.3096 45.7818 58.293C45.5416 58.2954 45.3035 58.2492 45.0815 58.1573C44.8596 58.0654 44.6586 57.9296 44.4905 57.758L37.0559 50.3235C36.7336 50.0112 36.3268 49.8003 35.8859 49.7168C35.445 49.6333 34.9893 49.6808 34.5751 49.8535C34.1609 50.0263 33.8065 50.3166 33.5556 50.6887C33.3046 51.0607 33.1683 51.4982 33.1634 51.9469C33.1618 52.2495 33.2215 52.5494 33.3388 52.8283C33.4561 53.1073 33.6286 53.3597 33.8459 53.5703L44.0108 63.5507C44.5712 64.0963 45.3225 64.4017 46.1047 64.4017C46.8868 64.4017 47.6381 64.0963 48.1985 63.5507L68.6574 43.553C69.036 43.169 69.2935 42.6822 69.398 42.1531C69.5024 41.624 69.4491 41.0759 69.2448 40.5768C69.0404 40.0778 68.694 39.6497 68.2485 39.3458C67.803 39.0418 67.278 38.8754 66.7388 38.8672Z" fill="url(#paint2_linear_24_2684)"/>
<defs>
<linearGradient id="paint0_linear_24_2684" x1="24.4314" y1="21.9214" x2="94.6122" y2="106.99" gradientUnits="userSpaceOnUse">
<stop stop-color="#003460"/>
<stop offset="0.485577" stop-color="#00A3FF"/>
<stop offset="1" stop-color="#003CFF"/>
</linearGradient>
<linearGradient id="paint1_linear_24_2684" x1="34.8757" y1="33.5351" x2="77.3221" y2="85.461" gradientUnits="userSpaceOnUse">
<stop stop-color="#003460"/>
<stop offset="0.485577" stop-color="#00A3FF"/>
<stop offset="1" stop-color="#003CFF"/>
</linearGradient>
<linearGradient id="paint2_linear_24_2684" x1="41.8011" y1="44.2851" x2="57.093" y2="70.8007" gradientUnits="userSpaceOnUse">
<stop stop-color="#003460"/>
<stop offset="0.485577" stop-color="#00A3FF"/>
<stop offset="1" stop-color="#003CFF"/>
</linearGradient>
</defs>
</svg>
