<svg width="83" height="90" viewBox="0 0 83 90" fill="none" xmlns="http://www.w3.org/2000/svg">
<path fill-rule="evenodd" clip-rule="evenodd" d="M52.6912 85.7982C46.0843 90.8686 36.9111 90.8686 30.3044 85.798C10.8357 70.8558 -0.30755 48.0164 0.00646269 24.1721C0.145495 13.6148 9.44455 6.51243 19.5945 3.6046C20.2912 3.405 20.9779 3.1975 21.6546 2.9821C33.9875 -0.943517 49.0103 -0.94723 61.3428 2.97961C62.0209 3.19552 62.709 3.4035 63.4071 3.60354C73.5564 6.51178 82.8548 13.6144 82.9936 24.1712C83.3071 48.0165 72.1616 70.856 52.6912 85.7982ZM58.3617 19.7308C58.4802 19.7259 58.5987 19.7259 58.7222 19.7308C60.3617 19.7703 61.8332 20.4459 62.9097 21.521C63.9764 22.5912 64.643 24.051 64.6925 25.6932C64.6974 25.8067 64.6974 25.925 64.6925 26.0434L64.49 33.3175V33.3175C64.4247 35.6566 63.4118 37.9339 63.3901 40.2737L63.2752 52.65C63.2653 54.021 62.9147 55.3033 62.2728 56.408C61.6259 57.5127 60.6876 58.4448 59.5025 59.1253V59.1253C58.6379 59.6226 58.1049 60.544 58.1049 61.5414V64.8855C58.1049 66.2762 56.9741 67.4055 55.5815 67.4055C54.1889 67.4055 53.0581 66.2762 53.0581 64.8855L53.0532 58.6273C52.9989 57.71 53.4581 56.7878 54.3075 56.2995L56.9643 54.7658C57.3692 54.534 57.6803 54.2282 57.8976 53.8633C58.1148 53.4984 58.2284 53.0742 58.2334 52.6156L58.3493 39.9908C58.3507 39.841 58.2252 39.724 58.0753 39.724V39.724C57.9568 39.7289 57.8383 39.7289 57.7247 39.724V39.724C55.3253 39.6585 52.5737 39.585 50.1902 39.8681C49.9765 39.8935 49.7603 39.9097 49.5421 39.9162C49.4039 39.9212 49.2755 39.9212 49.1372 39.9162C47.2855 39.862 45.6213 39.1025 44.4064 37.8942V37.8942C43.7057 37.1944 42.4474 37.0923 41.7402 37.7855C39.8447 39.6435 37.8418 40.4174 35.9996 40.9054C35.6401 41.0006 35.3856 41.323 35.3871 41.695V41.695C35.3885 42.0308 35.5999 42.328 35.9105 42.4556C37.194 42.9826 38.3257 43.6743 39.3498 44.5273C40.9349 45.849 42.209 47.5011 43.3398 49.4935C43.8435 50.3713 44.2484 51.2738 44.5792 52.1861C44.9101 53.1133 45.1521 54.0749 45.315 55.0563C45.5372 56.4272 44.6039 57.7243 43.2262 57.9512C41.8535 58.1731 40.5547 57.241 40.3275 55.8652C40.2189 55.1945 40.046 54.5287 39.8139 53.858C39.5818 53.2021 39.2954 52.5758 38.9547 51.9791C38.1053 50.4798 37.2017 49.2815 36.135 48.3888C35.1128 47.5405 33.8882 46.9389 32.3326 46.5838C31.2067 46.3322 30.3721 45.3361 30.3672 44.1377L30.3376 39.1715C30.2882 38.0076 31.0536 36.9277 32.2289 36.6219C32.619 36.5183 32.9844 36.4345 33.3647 36.3556C34.8756 36.0111 36.6485 35.6069 38.2596 34.0551C39.1946 33.1547 38.759 31.7171 37.498 31.4091V31.4091C34.866 30.768 31.4784 30.5608 29.3796 30.5608C24.2193 30.5608 23.3847 33.1894 23.3847 37.0756C23.3847 38.4022 23.444 39.6154 23.5032 40.8828V40.8828C23.6575 44.1486 24.5163 47.362 26.1659 50.1847L28.2982 53.8333C28.6587 54.4399 28.9204 55.076 29.0932 55.7715C29.2661 56.4422 29.3401 57.1227 29.3204 57.8378L29.0932 66.2758C29.0636 67.6666 27.9031 68.7713 26.5155 68.7367C25.1229 68.7071 24.0167 67.5482 24.0513 66.1574L24.2785 57.7194C24.2834 57.458 24.2588 57.2262 24.2044 57.0141C24.1551 56.8267 24.0662 56.6196 23.923 56.3829L18.9305 47.8315C18.654 47.358 18.5503 46.8304 18.5947 46.3224C18.6145 44.5619 18.5305 42.7815 18.4515 41.1048C18.3873 39.6105 18.3182 38.1951 18.3182 37.0756C18.3182 35.5094 18.3974 34.0569 18.6319 32.7478C19.375 28.5991 22.0693 24.6247 22.1897 20.4116V20.4116C22.249 18.2022 23.2021 16.1851 24.6686 14.7107C26.1501 13.2311 28.1796 12.2794 30.3821 12.2152H30.8364C32.9153 12.2744 34.782 13.1276 36.1399 14.4887V14.4887C37.1492 15.4884 38.666 16.0224 40.0802 15.8888C40.2372 15.874 40.3954 15.8642 40.5547 15.8597H40.9596C42.8113 15.9139 44.4755 16.6734 45.6904 17.8916V17.8916C45.753 17.9541 45.8515 17.9617 45.9242 17.9112C47.0708 17.1157 48.4552 16.6325 49.9223 16.5896C50.0606 16.5847 50.189 16.5847 50.3223 16.5896C52.1841 16.6438 53.8433 17.4033 55.058 18.6116V18.6116C55.841 19.402 56.9962 19.8113 58.1066 19.7414C58.1912 19.736 58.2763 19.7325 58.3617 19.7308ZM39.1372 26.6368C40.7049 27.0531 42.5713 25.9619 42.616 24.3405L42.6288 23.879C42.6289 23.8753 42.6298 23.8718 42.6314 23.8685V23.8685C42.633 23.8653 42.6339 23.8617 42.634 23.8581L42.6586 22.8773V22.754C42.6487 22.2361 42.4363 21.7824 42.1005 21.447C41.7796 21.1166 41.3252 20.9144 40.8068 20.9045H40.6833C40.0611 20.9243 39.4834 21.2054 39.0438 21.6394C38.5994 22.0832 38.3229 22.6602 38.3031 23.2816L38.2274 25.9462C38.2197 26.2151 38.4016 26.4558 38.6636 26.5168V26.5168C38.823 26.5553 38.981 26.5953 39.1372 26.6368ZM29.365 25.5107C31.4452 25.5009 33.2452 23.9223 33.3022 21.8428L33.3501 20.0958V19.9183C33.3304 19.1785 33.0291 18.5226 32.5551 18.0442C32.081 17.5708 31.4242 17.2749 30.6884 17.2552C30.6291 17.2502 30.5699 17.2502 30.5106 17.2552C29.6514 17.2798 28.8416 17.6595 28.2391 18.2661C27.6267 18.8727 27.2415 19.6864 27.2169 20.5544L27.1386 23.3208C27.104 24.5409 28.1443 25.5107 29.365 25.5107V25.5107V25.5107ZM50.056 21.6247C49.4338 21.6444 48.856 21.9255 48.4165 22.3595C47.9721 22.8033 47.6955 23.3853 47.6758 24.0116L47.4239 32.8985C47.419 32.9379 47.419 32.9872 47.4239 33.0316C47.4338 33.5445 47.6461 34.0032 47.972 34.3335C48.3029 34.6639 48.7572 34.8661 49.2658 34.8809H49.3991C50.0164 34.8612 50.5991 34.5801 51.0386 34.1461C51.4831 33.7023 51.7596 33.1203 51.7793 32.494L52.0312 23.6071V23.474C52.0213 22.9611 51.809 22.5025 51.4732 22.1721C51.0979 21.7874 50.5893 21.6099 50.056 21.6247ZM58.5842 24.7612H58.5002C58.1151 24.7711 57.7546 24.9486 57.478 25.2248C57.1966 25.5059 57.0139 25.8758 56.999 26.2654L56.7966 33.5395V33.6185C56.8015 33.9193 56.92 34.1856 57.1126 34.3779C57.3052 34.5653 57.562 34.6837 57.8583 34.6886H57.9373C58.3274 34.6787 58.6829 34.4963 58.9644 34.225C59.2459 33.9439 59.4237 33.5741 59.4385 33.1845L59.6459 25.9103V25.8314C59.636 25.5306 59.5126 25.2643 59.3249 25.0719C59.1372 24.8895 58.8755 24.7711 58.5842 24.7612Z" fill="url(#paint0_linear_24_2667)"/>
<defs>
<linearGradient id="paint0_linear_24_2667" x1="79.3091" y1="87.0471" x2="-3.88883" y2="0.0208289" gradientUnits="userSpaceOnUse">
<stop stop-color="#C31D00"/>
<stop offset="0.447115" stop-color="#F89B11"/>
<stop offset="1" stop-color="#FF5900"/>
</linearGradient>
</defs>
</svg>
