<svg width="126" height="102" viewBox="0 0 126 102" fill="none" xmlns="http://www.w3.org/2000/svg">
<path d="M103.306 56.1237C103.306 53.3384 106.323 50.34 105.448 47.6957C102.786 39.6493 96.4116 33.2775 88.3677 30.6161C85.7216 29.7406 82.7287 32.7592 79.9414 32.7592C77.1426 32.7592 74.1437 29.7391 71.4871 30.6198C63.4496 33.2847 57.0954 39.6578 54.4247 47.6994C53.5469 50.3423 56.5585 53.3388 56.5585 56.1237C56.5585 58.9169 53.5446 61.9296 54.4257 64.5802C57.0958 72.6123 63.4549 78.963 71.4866 81.6361C74.1413 82.5196 77.1436 79.5066 79.9414 79.5066C82.7272 79.5066 85.728 82.5198 88.372 81.6424C96.413 78.9743 102.781 72.6141 105.445 64.5801C106.324 61.9279 103.306 58.9178 103.306 56.1237ZM94.5883 58.6612C94.5863 58.6592 94.5836 58.6581 94.5808 58.6581H85.7568C83.793 58.6581 81.8984 59.8795 79.9346 59.8795C77.8582 59.8795 76.1849 58.2062 76.1849 56.1298C76.1849 54.166 77.4063 52.2714 77.4063 50.3076V41.4792C77.4063 40.0746 78.53 38.9448 79.9407 38.9448C81.3453 38.9448 82.4751 40.0685 82.4751 41.4792V53.2514C82.4751 53.3427 82.5114 53.4302 82.5759 53.4947C82.6404 53.5592 82.7279 53.5955 82.8192 53.5955H94.5914C95.996 53.5955 97.1258 54.7191 97.1258 56.1299C97.1258 57.533 96.0044 58.6619 94.5958 58.6643C94.593 58.6643 94.5902 58.6632 94.5883 58.6612Z" fill="url(#paint0_linear_24_2655)"/>
<path d="M83.3468 11.1023C83.3424 11.1104 83.3301 11.1073 83.3301 11.098V7.64193C83.3301 7.15178 83.7274 6.75443 84.2176 6.75443H88.0813C89.9561 6.75443 91.4585 5.25212 91.4585 3.37722C91.4585 1.50231 89.9562 0 88.0813 0H71.8253C69.9505 0 68.4481 1.51452 68.4481 3.37722C68.4481 5.23983 69.9504 6.75443 71.8253 6.75443H74.3051C75.5596 6.75443 76.5766 7.77139 76.5766 9.02587C76.5766 10.2144 75.6594 11.1957 74.4796 11.3393C70.7338 11.7951 67.1219 12.7072 63.7196 14.0248C61.7493 14.7878 59.6762 15.2921 57.5634 15.2921H22.6102C20.7476 15.2921 19.233 16.7944 19.233 18.6693C19.233 20.5442 20.7475 22.0465 22.6102 22.0465H37.6535C42.0516 22.0465 44.4591 27.9364 42.0604 31.6228C41.1285 33.0549 39.5636 33.9917 37.855 33.9917H32.2894C30.4268 33.9917 28.9122 35.5062 28.9122 37.3689C28.9122 39.2315 30.4267 40.7461 32.2894 40.7461C34.8297 40.7461 36.6048 43.275 36.019 45.7469C35.2299 49.0761 34.8053 52.5456 34.8053 56.1112C34.8053 63.7385 29.4579 71.4763 21.8306 71.4763H18.8909C17.0161 71.4763 15.5137 72.9908 15.5137 74.8535C15.5137 76.7161 17.016 78.2307 18.8909 78.2307H37.8498C39.561 78.2307 41.1233 79.1623 42.0551 80.5976C42.2597 80.9128 42.4681 81.2252 42.6802 81.5349C44.947 84.8444 42.7858 90.1881 38.7745 90.1881C36.9118 90.1881 35.3972 91.7026 35.3972 93.5653C35.3972 95.4279 36.9118 96.9425 38.7745 96.9425H55.165C58.8567 96.9425 62.468 97.8661 65.9758 99.0164C70.3773 100.46 75.0696 101.242 79.9539 101.242C104.827 101.242 125.09 80.9976 125.09 56.0929C125.09 31.1903 106.644 12.834 83.3554 11.0976C83.3519 11.0974 83.3485 11.0992 83.3468 11.1023ZM113.596 56.1898C113.565 74.7003 98.5236 89.7416 80.0141 89.7838H79.8737C61.3632 89.7349 46.3219 74.6996 46.2922 56.1898C46.2922 56.1715 46.2739 56.1593 46.2739 56.1288C46.2739 56.1104 46.2922 56.0982 46.2922 56.0677C46.3228 37.576 61.3642 22.5159 79.8737 22.4862H80.0141C98.5246 22.5168 113.566 37.5704 113.596 56.0677V56.2082V56.1898Z" fill="url(#paint1_linear_24_2655)"/>
<path d="M22.3582 40.7769C24.2208 40.7769 25.7354 39.2624 25.7354 37.3997C25.7354 35.537 24.2209 34.0225 22.3582 34.0225H12.8985C11.0358 34.0225 9.52124 35.537 9.52124 37.3997C9.52124 39.2624 11.0358 40.7769 12.8985 40.7769H22.3582Z" fill="url(#paint2_linear_24_2655)"/>
<path d="M0 56.1428C0 58.0055 1.51453 59.5201 3.37722 59.5201H26.3449C28.2075 59.5201 29.7221 58.0055 29.7221 56.1428C29.7221 54.2802 28.2076 52.7656 26.3449 52.7656H3.37722C1.5146 52.7656 0 54.2802 0 56.1428Z" fill="url(#paint3_linear_24_2655)"/>
<path d="M29.7841 90.2246H15.2434C13.3808 90.2246 11.8662 91.7391 11.8662 93.6018C11.8662 95.4644 13.3807 96.9791 15.2434 96.9791H29.7841C31.6467 96.9791 33.1614 95.4645 33.1614 93.6018C33.1614 91.7392 31.6468 90.2246 29.7841 90.2246Z" fill="url(#paint4_linear_24_2655)"/>
<defs>
<linearGradient id="paint0_linear_24_2655" x1="104.22" y1="79.6496" x2="61.5046" y2="25.2782" gradientUnits="userSpaceOnUse">
<stop stop-color="#E218AF"/>
<stop offset="0.466346" stop-color="#871D6C"/>
<stop offset="1" stop-color="#2D0055"/>
</linearGradient>
<linearGradient id="paint1_linear_24_2655" x1="120.218" y1="95.2747" x2="40.8446" y2="-14.0737" gradientUnits="userSpaceOnUse">
<stop stop-color="#E218AF"/>
<stop offset="0.466346" stop-color="#871D6C"/>
<stop offset="1" stop-color="#2D0055"/>
</linearGradient>
<linearGradient id="paint2_linear_24_2655" x1="25.0144" y1="40.3788" x2="21.7215" y2="30.3174" gradientUnits="userSpaceOnUse">
<stop stop-color="#E218AF"/>
<stop offset="0.466346" stop-color="#871D6C"/>
<stop offset="1" stop-color="#2D0055"/>
</linearGradient>
<linearGradient id="paint3_linear_24_2655" x1="28.4004" y1="59.122" x2="26.4731" y2="48.327" gradientUnits="userSpaceOnUse">
<stop stop-color="#E218AF"/>
<stop offset="0.466346" stop-color="#871D6C"/>
<stop offset="1" stop-color="#2D0055"/>
</linearGradient>
<linearGradient id="paint4_linear_24_2655" x1="32.2144" y1="96.581" x2="29.6009" y2="86.0931" gradientUnits="userSpaceOnUse">
<stop stop-color="#E218AF"/>
<stop offset="0.466346" stop-color="#871D6C"/>
<stop offset="1" stop-color="#2D0055"/>
</linearGradient>
</defs>
</svg>
